<svg width="1437" height="865" viewBox="0 0 1437 865" fill="none" xmlns="http://www.w3.org/2000/svg">
<path d="M760.284 49.8461C761.633 56.1202 763.32 60.2355 768.447 70.1527C771.55 76.2244 773.979 81.3516 773.777 81.554C773.574 81.7564 770.741 79.8 767.503 77.2363C764.264 74.6053 760.891 72.1766 760.082 71.7043C758.193 70.7598 753.673 70.7598 751.446 71.7718C749.76 72.5139 749.76 72.5814 750.164 77.9785C750.974 88.2329 753.268 94.642 759.542 104.627C760.824 106.651 761.768 108.405 761.633 108.54C761.566 108.674 759.272 107.865 756.641 106.785C752.053 104.896 751.851 104.829 750.772 106.043C749.692 107.19 749.692 107.797 750.637 114.274C752.863 128.914 757.72 140.18 769.661 157.99C774.047 164.467 778.634 172.023 779.916 174.721C786.392 188.619 786.527 201.977 780.253 219.045C775.328 232.403 768.649 245.491 760.014 258.849C757.585 262.559 754.752 267.687 753.673 270.318C750.839 277.199 749.152 279.83 738.965 293.593C709.349 333.531 698.15 357.481 692.146 393.506C688.907 412.801 685.399 421.774 678.383 428.857C673.458 433.85 669.208 436.211 660.775 438.707C642.357 444.172 636.555 444.981 606.736 446.33C530.502 449.771 528.883 449.906 521.395 452.47C518.426 453.482 515.795 454.494 515.525 454.763C514.716 455.506 517.482 462.252 519.438 464.343C522.946 468.054 532.999 472.304 542.174 474.058C545.344 474.598 555.734 475.34 566.258 475.745C604.443 477.161 618.61 479.388 645.865 488.225C665.362 494.567 692.888 501.651 709.619 504.687C726.755 507.722 735.255 508.465 754.819 508.465C771.348 508.465 774.721 508.262 781.805 506.98C800.223 503.607 809.87 499.559 823.093 489.507C832.538 482.356 840.026 478.173 848.257 475.542C857.162 472.641 862.424 472.034 877.603 472.102C894.065 472.102 897.37 472.709 909.379 477.499C915.788 479.995 918.487 480.737 922.669 481.007L927.864 481.344L936.381 475.542L927.864 467.042L925.705 465.423C922.197 462.792 919.836 461.78 910.931 459.216C892.648 453.886 884.687 449.434 874.23 438.909C864.853 429.397 859.726 427.306 841.78 425.822C836.653 425.417 831.121 424.877 829.502 424.742L826.601 424.405L826.736 411.789C826.871 396.745 828.018 385.276 830.716 371.311C836.72 341.087 847.515 317.947 867.079 293.593C875.31 283.338 879.425 276.592 882.393 268.698C887.858 254.194 887.993 241.308 883.27 201.505C878.211 159.205 865.662 125.675 845.018 99.8367C841.645 95.5865 840.498 94.642 838.744 94.4396C836.855 94.2372 836.451 93.8324 835.574 91.4037C834.494 88.0305 831.998 85.6693 819.585 76.3593C797.524 59.8307 781.265 51.2628 767.03 48.7667C760.486 47.5523 759.812 47.6872 760.284 49.8461Z" fill="url(#paint0_linear_2684_10)"/>
<path d="M504.535 179.357C506.171 182.627 510.643 186.619 516.318 189.937C516.415 189.985 515.837 191.332 515.02 192.919L513.577 195.805L517.04 199.123C528.678 210.377 543.636 219.13 574.127 232.693C599.088 243.754 612.939 252.459 625.106 264.675C638.669 278.237 647.807 293.964 656.127 318.011C663.726 340.134 668.679 363.508 671.517 391.065C671.95 395.153 672.623 399.289 673.008 400.299L673.777 402.175L675.749 401.454C684.262 398.424 687.436 392.749 690.273 375.339C694.554 349.32 704.028 329.361 725.67 300.697C730.768 294.012 733.75 289.107 735.193 285.307C735.626 284.153 735.289 283.72 730.768 279.247C717.687 266.406 702.874 255.633 675.316 239.089C654.395 226.44 642.372 220.284 621.74 211.435C602.887 203.355 566.432 189.889 538.009 180.559C528.967 177.625 526.466 177.192 523.677 178.154C522.474 178.587 522.186 178.924 522.186 180.078C522.186 180.848 522.138 181.473 522.041 181.473C521.945 181.473 519.396 180.607 516.366 179.501C512.471 178.106 509.826 177.481 507.132 177.289L503.333 177L504.535 179.357Z" fill="url(#paint1_linear_2684_10)"/>
<path d="M658.599 531.001C645.133 534.601 635.399 540.468 624.333 551.534C613.399 562.468 605.266 577.401 600.866 594.334C597.266 607.668 596.599 639.668 599.533 654.334C607.399 693.801 632.199 719.801 667.533 725.668C691.533 729.668 718.066 721.801 734.866 705.934C744.066 697.134 752.999 681.268 756.466 667.668C757.266 664.334 757.266 664.334 748.466 664.334C740.066 664.334 739.666 664.468 738.866 667.934C737.533 673.534 732.466 683.001 727.666 689.001C714.866 705.001 692.066 713.401 670.599 709.668C643.933 705.268 624.599 685.668 616.999 655.668C613.666 642.468 613.266 615.134 616.333 601.001C620.599 581.001 634.866 560.201 649.933 552.068C665.799 543.534 687.533 541.934 703.799 548.334C719.133 554.334 731.799 567.268 737.266 582.601L740.333 591.001H748.599C753.266 591.001 756.999 590.468 756.999 589.801C756.999 589.134 755.799 584.734 754.333 580.068C746.999 556.068 723.399 534.868 698.599 529.801C687.799 527.534 669.666 528.068 658.599 531.001Z" fill="url(#paint2_linear_2684_10)"/>
<path d="M1289.8 530.468C1270.87 535.001 1251.53 549.668 1241.13 567.268C1230.6 585.268 1225.4 610.201 1226.87 635.001C1228.87 670.734 1242.2 697.801 1265.4 713.268C1279.67 722.868 1291.4 726.334 1309.67 726.201C1334.2 726.201 1349.93 719.801 1366.6 703.001C1382.6 686.868 1390.33 668.468 1393 640.734C1398.2 585.534 1372.47 540.334 1330.07 530.334C1319.67 527.934 1300.2 527.934 1289.8 530.468ZM1323.93 545.801C1347.93 550.868 1366.33 570.468 1373.93 599.001C1377.53 612.601 1377.13 644.334 1373.27 658.334C1366.2 683.001 1351.53 699.934 1331.13 707.001C1308.2 714.868 1283.13 709.268 1266.47 692.734C1257.13 683.401 1248.6 666.868 1245.67 652.601C1243 639.801 1243.13 615.001 1245.8 601.934C1251.4 574.468 1269.93 552.734 1293.13 546.468C1301.93 544.068 1314.47 543.801 1323.93 545.801Z" fill="url(#paint3_linear_2684_10)"/>
<path d="M45 627.668V724.334H53H61V645.401C61 599.534 61.5333 567.001 62.2 567.668C62.8667 568.468 77.9333 603.934 95.8 646.601L128.067 724.334H135.8C140.6 724.334 143.667 723.668 144.067 722.601C145.8 718.468 204.2 578.868 206.6 573.401C208.067 569.934 209.8 567.401 210.467 567.801C211.133 568.201 211.667 602.868 211.667 646.468V724.334H219.667H227.667V627.668V531.001H217.4H207L172.2 614.734C152.333 662.601 136.733 698.334 135.667 698.334C134.733 698.334 119.133 662.468 99.2667 614.601L64.3333 531.001H54.7333H45V627.668Z" fill="url(#paint4_linear_2684_10)"/>
<path d="M279.667 627.668V724.334H336.334H393V716.334V708.334H344.467H295.934L295.8 671.668L295.667 635.001H340.334H385V627.668C385 622.734 384.467 620.334 383.4 620.201C382.467 620.201 362.467 620.068 339 619.934L296.334 619.668V583.001V546.334L344.067 545.934L391.667 545.668V538.334V531.001H335.667H279.667V627.668Z" fill="url(#paint5_linear_2684_10)"/>
<path d="M437.267 627.668V724.334H445.8H454.333V685.001V645.668H481H507.533L510.867 651.268C512.6 654.468 522.067 671.668 531.667 689.668C541.267 707.668 549.667 722.868 550.2 723.401C550.733 723.934 555.533 724.334 560.6 724.068L569.933 723.668L548.2 683.668C536.2 661.668 526.333 643.401 526.333 642.868C526.333 642.468 529.4 640.734 533.267 638.868C553.667 629.401 565.133 605.001 561.267 579.001C558.467 559.268 548.6 545.134 532.6 537.668C520.2 531.801 513.267 531.001 473.667 531.001H437.4L437.267 627.668ZM519.267 549.001C528.333 552.068 536.2 558.868 540.733 567.534C543.933 573.668 544.333 575.668 544.333 588.334C544.333 601.401 544.067 602.868 540.333 609.668C538.067 613.668 533.8 618.868 530.6 621.268C521 628.601 514.733 629.668 482.733 629.668H454.333V588.601C454.333 565.934 454.733 547.001 455.267 546.468C455.933 545.934 468.867 545.668 484.333 545.934C507.133 546.468 513.667 547.001 519.267 549.001Z" fill="url(#paint6_linear_2684_10)"/>
<path d="M799.667 600.068C799.667 676.068 799.8 677.401 807.934 692.601C810.334 697.001 815.534 703.668 820.067 707.801C834.467 721.134 850.467 727.001 872.6 727.001C907.534 727.001 933.134 709.534 943.134 679.001C945.267 672.468 945.534 664.468 946.067 601.268L946.467 531.001H937.8H929.134L928.734 599.934C928.2 677.001 928.2 676.468 918.867 689.134C908.734 702.868 895.667 709.534 877 710.601C851.267 712.201 831.934 702.068 822.067 681.934L817.667 673.001L817.267 602.068L816.867 531.001H808.334H799.667V600.068Z" fill="url(#paint7_linear_2684_10)"/>
<path d="M998.333 627.668V724.334H1006.33H1014.33L1014.6 685.268L1015 646.334L1041.67 646.068L1068.33 645.668L1088.33 683.134C1099.4 703.801 1109 721.534 1109.67 722.601C1110.73 723.934 1113.4 724.334 1120.6 724.068L1130.07 723.668L1108.2 683.668C1096.2 661.668 1086.33 643.268 1086.33 642.868C1086.33 642.468 1088.87 640.868 1091.93 639.534C1112.33 630.334 1123.53 609.668 1121.93 584.334C1120.6 562.734 1111.8 547.934 1095.27 538.868C1082.07 531.801 1075.93 531.001 1034.73 531.001H998.333V627.668ZM1079.53 548.868C1084.73 550.601 1088.6 553.134 1093.53 558.068C1101.67 566.334 1105 575.001 1105 588.201C1105 606.334 1098.2 618.201 1083.93 625.268C1076.33 629.001 1076.2 629.001 1045.4 629.401L1014.33 629.934V588.601C1014.33 565.934 1014.73 547.001 1015.4 546.468C1015.93 545.934 1029 545.668 1044.33 546.068C1066.07 546.468 1073.93 547.134 1079.53 548.868Z" fill="url(#paint8_linear_2684_10)"/>
<path d="M1166.33 627.668V724.334H1175H1183.67V627.668V531.001H1175H1166.33V627.668Z" fill="url(#paint9_linear_2684_10)"/>
<path d="M633.133 778.068C635.267 780.068 635.667 782.334 635.667 794.734C635.667 803.801 635 810.201 633.933 812.334L632.2 815.668L642.867 815.934C654.067 816.201 657.4 815.268 659.533 811.134C660.867 808.734 660.733 808.734 656.067 811.134C653.267 812.601 648.467 813.668 645.4 813.668H639.667V796.734C639.667 784.068 640.2 779.401 641.533 777.801C643.267 775.934 642.733 775.668 637 775.668C630.733 775.668 630.6 775.668 633.133 778.068Z" fill="#172554"/>
<path d="M676.334 782.601C674.334 786.868 670.601 795.134 668.067 801.001C665.401 806.868 662.467 812.734 661.267 813.934C659.401 816.201 659.667 816.334 665.134 816.334C669.801 816.201 670.467 815.934 668.734 814.868C665.801 813.134 665.667 811.001 668.601 805.001C670.867 800.201 670.867 800.201 678.867 800.601L686.734 801.001L688.601 806.334C689.801 809.801 690.067 812.334 689.267 813.801C688.201 815.534 688.867 815.801 694.467 815.801C700.067 815.801 700.601 815.668 698.334 814.068C697.001 813.134 692.734 804.334 689.001 794.601C685.134 785.001 681.534 776.468 681.001 775.934C680.467 775.268 678.334 778.334 676.334 782.601ZM681.534 787.401C685.801 797.801 685.801 797.668 679.134 797.668C675.801 797.668 673.001 797.134 673.001 796.468C673.001 794.868 678.334 783.001 679.001 783.001C679.401 783.001 680.467 785.001 681.534 787.401Z" fill="#172554"/>
<path d="M704.334 778.334C707.534 781.401 707.667 782.468 707.667 796.468C707.667 807.668 707.134 811.934 705.801 813.534C704.067 815.534 704.334 815.668 709.267 815.801C714.067 815.934 714.467 815.801 712.601 814.334C710.601 812.868 710.334 810.734 710.601 799.534L711.001 786.468L724.334 801.668L737.667 816.868L738.067 797.668C738.201 787.134 739.001 777.934 739.534 777.134C740.334 776.068 738.867 775.668 734.734 775.534C728.734 775.401 728.734 775.401 732.201 777.268C735.667 779.001 735.667 779.268 735.667 793.001C735.667 800.734 735.534 807.001 735.267 807.001C735.001 807.001 728.467 799.801 720.867 791.001C711.134 779.801 706.067 775.001 704.067 775.001C701.134 775.001 701.134 775.001 704.334 778.334Z" fill="#172554"/>
<path d="M796.734 776.734C799.534 778.068 799.667 778.734 799.667 795.801C799.667 811.268 799.4 813.668 797.4 814.868C795.534 815.934 796.867 816.201 803 816.334C810.6 816.334 810.734 816.201 807.934 814.201C805.134 812.334 805 811.268 805 795.001C805 780.068 805.267 777.668 807.267 776.468C809 775.534 807.534 775.268 801.667 775.268C795 775.268 794.2 775.534 796.734 776.734Z" fill="#172554"/>
<path d="M817.8 777.801C819.267 779.401 819.667 783.934 819.667 796.734C819.667 811.401 819.4 813.668 817.4 814.868C815.667 815.801 818.734 816.068 827.934 815.934C838.6 815.668 841.4 815.134 844.467 812.868C857.267 803.401 857.4 785.801 844.867 778.334C841.267 776.201 837.934 775.668 828.067 775.668C816.867 775.668 815.934 775.801 817.8 777.801ZM838.334 778.468C851.267 783.668 854.2 804.468 842.867 811.934C838.6 814.734 828.867 815.001 825.667 812.334C824.067 811.001 823.667 807.534 823.667 794.868C823.667 781.268 823.934 779.001 826.067 777.801C829.267 775.801 832.2 776.068 838.334 778.468Z" fill="#172554"/>
<path d="M865.8 792.601C861.4 802.334 856.733 811.668 855.266 813.268L852.6 816.334H858.333C863.533 816.334 863.933 816.201 861.8 814.601C859.4 812.868 859.4 812.601 862.066 806.601L864.866 800.334H872.2C880.066 800.334 881.266 801.268 883.666 809.801C884.466 812.601 884.333 813.934 882.866 814.734C881.666 815.401 883.533 815.801 887.8 815.934C894.466 816.068 894.733 815.934 892.066 813.801C890.466 812.601 886.2 803.668 882.333 793.268C878.466 783.268 874.866 775.001 874.466 775.001C873.933 775.001 870.066 783.001 865.8 792.601ZM876.066 789.268C877.266 792.868 878.333 796.068 878.333 796.601C878.333 797.268 875.533 797.668 872.2 797.668C867.8 797.668 866.2 797.134 866.733 795.934C870.733 785.801 872.066 783.001 872.866 783.001C873.4 783.001 874.866 785.801 876.066 789.268Z" fill="#172554"/>
<path d="M557.133 785.934C554.066 791.268 550.866 796.868 549.933 798.334C541.266 812.334 539.799 815.001 540.733 815.134C548.199 816.334 554.999 815.134 551.666 813.001C549.666 811.801 555.666 800.468 557.933 801.268C559.133 801.801 559.666 803.134 559.266 804.601C558.599 806.868 558.999 807.134 562.066 806.334C564.066 805.801 566.733 804.334 568.066 802.868C571.399 799.268 573.133 800.201 575.266 806.334C576.866 811.001 576.866 811.801 574.999 813.134C572.066 815.401 572.466 815.668 577.933 815.401C585.666 815.001 585.799 815.001 583.266 813.534C580.066 811.668 574.866 801.268 576.866 800.601C577.799 800.334 577.266 799.268 575.666 797.934C574.199 796.601 571.266 791.534 569.133 786.334C566.999 781.268 564.599 776.868 563.933 776.601C563.133 776.334 560.066 780.601 557.133 785.934ZM568.866 789.268C569.933 792.068 570.999 795.001 571.266 795.934C571.666 796.868 569.933 798.468 567.399 799.401C563.533 801.001 562.733 801.001 560.733 799.268C558.466 797.401 558.599 796.868 562.066 790.868C564.066 787.268 565.933 784.334 566.333 784.334C566.866 784.334 567.933 786.601 568.866 789.268Z" fill="#172554"/>
<path d="M591.4 780.601C590.733 784.868 590.733 784.868 592.733 781.934C594.2 779.668 595.933 779.001 600.466 779.001H606.333V796.334C606.333 811.268 606.066 813.668 604.066 814.868C602.2 815.934 603.4 816.201 609 816.201C614.6 816.201 615.8 815.934 614.066 814.868C611.933 813.668 611.666 811.268 611.666 796.334V779.001H618.333C623.133 779.001 625.266 779.668 626.2 781.268C627.4 783.268 627.533 783.134 627.666 779.934V776.334H609.8H591.933L591.4 780.601Z" fill="#172554"/>
<path d="M745 779.134C745 780.601 745.667 783.001 746.467 784.601C747.8 787.134 748.067 787.001 750.067 782.734C751.933 779.001 753 778.334 757 778.334C761 778.334 761.667 778.868 762.333 782.468C762.867 784.734 762.867 793.001 762.467 800.734C762.067 808.601 761.8 815.001 762.067 815.001C762.2 815.001 763 813.668 763.667 811.934C764.6 809.668 764.867 809.534 764.867 811.268C765 812.601 765.933 813.668 767 813.668C768.067 813.668 769 812.601 769.133 811.268C769.133 809.534 769.4 809.668 770.333 811.934C771 813.668 771.8 815.001 771.933 815.001C773 815.001 771.267 791.534 770.2 790.334C769.4 789.668 769 789.801 769 790.734C769 791.668 768.067 792.334 767 792.334C764.867 792.334 764.6 790.468 766.2 786.468C767.133 784.068 767.267 784.068 768.067 786.068C769.4 789.668 771.133 788.734 771.4 784.068C771.8 778.601 773.133 777.401 777.8 777.934C780.6 778.201 782.333 779.534 783.8 782.734C786.2 787.534 788.067 786.601 789.667 779.934L790.6 776.334H767.8C745.667 776.334 745 776.468 745 779.134ZM767.8 798.068C765.667 800.201 764.333 798.068 766.467 795.534C767.667 794.068 768.467 793.934 768.733 795.001C769 795.801 768.6 797.268 767.8 798.068ZM768.333 806.601C766.867 807.534 765.4 808.334 764.733 808.334C762.867 808.334 763.667 805.801 765.933 804.468C769.267 802.734 771.267 804.334 768.333 806.601Z" fill="#172554"/>
<defs>
<linearGradient id="paint0_linear_2684_10" x1="725.881" y1="508.465" x2="725.881" y2="47.9999" gradientUnits="userSpaceOnUse">
<stop stop-color="#1E3A8A"/>
<stop offset="1" stop-color="#5979D5"/>
</linearGradient>
<linearGradient id="paint1_linear_2684_10" x1="619.333" y1="402.175" x2="619.333" y2="177" gradientUnits="userSpaceOnUse">
<stop stop-color="#1E3A8A"/>
<stop offset="1" stop-color="#5979D5"/>
</linearGradient>
<linearGradient id="paint2_linear_2684_10" x1="677.346" y1="726.698" x2="677.346" y2="528.397" gradientUnits="userSpaceOnUse">
<stop stop-color="#1D4ED8"/>
<stop offset="1" stop-color="#6380CF"/>
</linearGradient>
<linearGradient id="paint3_linear_2684_10" x1="1310.14" y1="726.205" x2="1310.14" y2="528.551" gradientUnits="userSpaceOnUse">
<stop stop-color="#1D4ED8"/>
<stop offset="1" stop-color="#6380CF"/>
</linearGradient>
<linearGradient id="paint4_linear_2684_10" x1="136.333" y1="724.334" x2="136.333" y2="531.001" gradientUnits="userSpaceOnUse">
<stop stop-color="#1D4ED8"/>
<stop offset="1" stop-color="#6380CF"/>
</linearGradient>
<linearGradient id="paint5_linear_2684_10" x1="336.334" y1="724.334" x2="336.334" y2="531.001" gradientUnits="userSpaceOnUse">
<stop stop-color="#1D4ED8"/>
<stop offset="1" stop-color="#6380CF"/>
</linearGradient>
<linearGradient id="paint6_linear_2684_10" x1="503.6" y1="724.334" x2="503.6" y2="531.001" gradientUnits="userSpaceOnUse">
<stop stop-color="#1D4ED8"/>
<stop offset="1" stop-color="#6380CF"/>
</linearGradient>
<linearGradient id="paint7_linear_2684_10" x1="873.067" y1="727.001" x2="873.067" y2="531.001" gradientUnits="userSpaceOnUse">
<stop stop-color="#1D4ED8"/>
<stop offset="1" stop-color="#6380CF"/>
</linearGradient>
<linearGradient id="paint8_linear_2684_10" x1="1064.2" y1="724.334" x2="1064.2" y2="531.001" gradientUnits="userSpaceOnUse">
<stop stop-color="#1D4ED8"/>
<stop offset="1" stop-color="#6380CF"/>
</linearGradient>
<linearGradient id="paint9_linear_2684_10" x1="1175" y1="724.334" x2="1175" y2="531.001" gradientUnits="userSpaceOnUse">
<stop stop-color="#1D4ED8"/>
<stop offset="1" stop-color="#6380CF"/>
</linearGradient>
</defs>
</svg>
